<?xml version="1.0" encoding="UTF-8" standalone="no"?>
<!-- Created with Inkscape (http://www.inkscape.org/) -->

<svg
   width="132.29167mm"
   height="132.34605mm"
   viewBox="0 0 132.29167 132.34605"
   version="1.1"
   id="svg5"
   inkscape:version="1.1.1 (3bf5ae0d25, 2021-09-20)"
   sodipodi:docname="shirelifelogo.svg"
   xmlns:inkscape="http://www.inkscape.org/namespaces/inkscape"
   xmlns:sodipodi="http://sodipodi.sourceforge.net/DTD/sodipodi-0.dtd"
   xmlns="http://www.w3.org/2000/svg"
   xmlns:svg="http://www.w3.org/2000/svg">
  <sodipodi:namedview
     id="namedview7"
     pagecolor="#505050"
     bordercolor="#ffffff"
     borderopacity="1"
     inkscape:pageshadow="0"
     inkscape:pageopacity="0"
     inkscape:pagecheckerboard="1"
     inkscape:document-units="mm"
     showgrid="false"
     inkscape:lockguides="false"
     inkscape:zoom="0.72337262"
     inkscape:cx="42.163609"
     inkscape:cy="116.81393"
     inkscape:window-width="1920"
     inkscape:window-height="1001"
     inkscape:window-x="-9"
     inkscape:window-y="-9"
     inkscape:window-maximized="1"
     inkscape:current-layer="layer1" />
  <defs
     id="defs2" />
  <g
     inkscape:label="Layer 1"
     inkscape:groupmode="layer"
     id="layer1"
     transform="translate(-42.674591,-68.796623)">
    <circle
       style="fill:#80863e;fill-opacity:1;stroke-width:0.333038"
       id="path26911"
       cx="108.82043"
       cy="134.94246"
       r="66.145836" />
    <path
       style="fill:none;stroke:#000000;stroke-width:0.233221px;stroke-linecap:butt;stroke-linejoin:miter;stroke-opacity:1"
       d="m 66.723892,84.093173 c 0,102.002307 0.265971,102.002307 0.265971,102.002307"
       id="path27026" />
    <path
       style="fill:none;stroke:#000000;stroke-width:0.246159px;stroke-linecap:butt;stroke-linejoin:miter;stroke-opacity:1"
       d="m 75.907573,77.69529 c 0,114.80831 0.26325,114.80831 0.26325,114.80831"
       id="path27026-0" />
    <path
       style="fill:none;stroke:#000000;stroke-width:0.253096px;stroke-linecap:butt;stroke-linejoin:miter;stroke-opacity:1"
       d="m 84.185133,73.941736 c 0,122.567734 0.26069,122.567734 0.26069,122.567734"
       id="path27026-7" />
    <path
       style="fill:none;stroke:#000000;stroke-width:0.25826px;stroke-linecap:butt;stroke-linejoin:miter;stroke-opacity:1"
       d="m 92.720423,71.241299 c 0,127.982971 0.25994,127.982971 0.25994,127.982971"
       id="path27026-2" />
    <path
       style="fill:none;stroke:#000000;stroke-width:0.261233px;stroke-linecap:butt;stroke-linejoin:miter;stroke-opacity:1"
       d="m 101.51425,69.428441 c 0,131.217689 0.2594,131.217689 0.2594,131.217689"
       id="path27026-1" />
    <path
       style="fill:none;stroke:#000000;stroke-width:0.261671px;stroke-linecap:butt;stroke-linejoin:miter;stroke-opacity:1"
       d="m 110.56658,69.203677 c 0,131.830013 0.25908,131.830013 0.25908,131.830013"
       id="path27026-77" />
    <path
       style="fill:none;stroke:#000000;stroke-width:0.259812px;stroke-linecap:butt;stroke-linejoin:miter;stroke-opacity:1"
       d="m 120.13588,70.076796 c 0,129.793434 0.2594,129.793434 0.2594,129.793434"
       id="path27026-6" />
    <path
       style="fill:none;stroke:#000000;stroke-width:0.255895px;stroke-linecap:butt;stroke-linejoin:miter;stroke-opacity:1"
       d="m 128.41204,72.13963 c 0,125.79113 0.25965,125.79113 0.25965,125.79113"
       id="path27026-775" />
    <path
       style="fill:none;stroke:#000000;stroke-width:0.249726px;stroke-linecap:butt;stroke-linejoin:miter;stroke-opacity:1"
       d="m 137.46307,75.708134 c 0,118.733766 0.26197,118.733766 0.26197,118.733766"
       id="path27026-772" />
    <path
       style="fill:none;stroke:#000000;stroke-width:0.241738px;stroke-linecap:butt;stroke-linejoin:miter;stroke-opacity:1"
       d="m 144.44599,79.475272 c 0,111.087578 0.26238,111.087578 0.26238,111.087578"
       id="path27026-15" />
    <path
       style="fill:none;stroke:#000000;stroke-width:0.230381px;stroke-linecap:butt;stroke-linejoin:miter;stroke-opacity:1"
       d="m 151.94565,84.786449 c 0,100.346721 0.26382,100.346721 0.26382,100.346721"
       id="path27026-4" />
    <path
       style="fill:none;stroke:#000000;stroke-width:0.210225px;stroke-linecap:butt;stroke-linejoin:miter;stroke-opacity:1"
       d="m 159.44732,92.857178 c 0,84.384692 0.26123,84.384692 0.26123,84.384692"
       id="path27026-5" />
    <path
       style="fill:none;stroke:#000000;stroke-width:0.192076px;stroke-linecap:butt;stroke-linejoin:miter;stroke-opacity:1"
       d="m 164.8769,100.22686 c 0,69.5186 0.26472,69.5186 0.26472,69.5186"
       id="path27026-74" />
    <path
       style="fill:none;stroke:#000000;stroke-width:0.150569px;stroke-linecap:butt;stroke-linejoin:miter;stroke-opacity:1"
       d="m 171.33939,114.26275 c 0,41.6533 0.27147,41.6533 0.27147,41.6533"
       id="path27026-01" />
    <path
       style="fill:none;stroke:#000000;stroke-width:0.212852px;stroke-linecap:butt;stroke-linejoin:miter;stroke-opacity:1"
       d="m 57.800478,93.16433 c 0,84.08612 0.268749,84.08612 0.268749,84.08612"
       id="path27026-22" />
    <path
       style="fill:none;stroke:#000000;stroke-width:0.181972px;stroke-linecap:butt;stroke-linejoin:miter;stroke-opacity:1"
       d="m 49.51894,105.85112 c 0,59.12563 0.279351,59.12563 0.279351,59.12563"
       id="path27026-28" />
    <path
       style="fill:none;stroke:#000000;stroke-width:0.138714px;stroke-linecap:butt;stroke-linejoin:miter;stroke-opacity:1"
       d="m 85.160833,188.24278 1.979652,-10.40198 5.090535,-2.0804"
       id="path27981" />
    <path
       style="fill:none;stroke:#000000;stroke-width:0.138714px;stroke-linecap:butt;stroke-linejoin:miter;stroke-opacity:1"
       d="m 85.302236,181.61152 5.797553,-2.0804"
       id="path27983" />
    <path
       style="fill:none;stroke:#000000;stroke-width:0.306172px;stroke-linecap:butt;stroke-linejoin:miter;stroke-opacity:1"
       d="M 109.53144,89.76585 C 66.783673,102.85783 65.278453,95.419205 65.278453,95.419205"
       id="path35142" />
    <path
       style="fill:none;stroke:#000000;stroke-width:0.306172px;stroke-linecap:butt;stroke-linejoin:miter;stroke-opacity:1"
       d="m 65.278453,95.419205 c 0,0 -35.82385,85.990535 44.855087,88.965985"
       id="path35789" />
    <path
       style="fill:none;stroke:#000000;stroke-width:0.306172px;stroke-linecap:butt;stroke-linejoin:miter;stroke-opacity:1"
       d="m 109.53144,89.76585 c 42.74777,13.09198 44.25299,5.653355 44.25299,5.653355"
       id="path35142-1" />
    <path
       style="fill:none;stroke:#000000;stroke-width:0.306172px;stroke-linecap:butt;stroke-linejoin:miter;stroke-opacity:1"
       d="m 153.78443,95.419205 c 0,0 35.82384,85.990525 -44.85508,88.965985"
       id="path35789-8" />
    <path
       style="fill:#7e713a;fill-opacity:1;stroke-width:0.299288"
       d="m 104.90743,183.43337 c -12.082727,-1.20424 -21.102547,-4.05699 -28.831997,-9.11889 -4.7331,-3.09964 -10.34879,-9.42427 -13.00842,-14.65064 -6.42117,-12.61805 -7.01589,-30.74543 -1.68201,-51.26655 1.22842,-4.726 3.49775,-11.797655 3.92564,-12.232945 0.13562,-0.13798 0.56588,-0.0508 0.95611,0.19357 4.1008,2.56867 18.843,0.55795 38.845387,-5.298215 l 4.4193,-1.29385 6.62542,1.890558 c 18.91473,5.397287 32.83026,7.181207 36.7235,4.707837 0.39022,-0.24792 0.81676,-0.33788 0.94783,-0.1999 0.43195,0.45471 2.73223,7.607055 3.93426,12.232945 4.74637,18.26614 4.80709,35.14704 0.16914,47.01683 -2.34683,6.00609 -4.84927,9.81804 -9.33087,14.21357 -4.89904,4.80491 -10.10436,7.93241 -17.23688,10.35641 -7.85085,2.66811 -19.30738,4.16177 -26.45641,3.44927 z"
       id="path36055" />
    <path
       style="fill:none;stroke:#000000;stroke-width:0.264583px;stroke-linecap:butt;stroke-linejoin:miter;stroke-opacity:1"
       d="M 109.66077,96.208887 C 72.934779,107.58877 71.641599,101.12293 71.641599,101.12293"
       id="path35142-8" />
    <path
       style="fill:none;stroke:#000000;stroke-width:0.264583px;stroke-linecap:butt;stroke-linejoin:miter;stroke-opacity:1"
       d="m 71.641599,101.12293 c 0,0 -30.77743,74.74519 38.536451,77.33153"
       id="path35789-7" />
    <path
       style="fill:none;stroke:#000000;stroke-width:0.264583px;stroke-linecap:butt;stroke-linejoin:miter;stroke-opacity:1"
       d="m 109.66077,96.208887 c 36.72599,11.379883 38.01917,4.914043 38.01917,4.914043"
       id="path35142-1-4" />
    <path
       style="fill:none;stroke:#000000;stroke-width:0.264583px;stroke-linecap:butt;stroke-linejoin:miter;stroke-opacity:1"
       d="m 147.67994,101.12293 c 0,0 30.77743,74.74518 -38.53645,77.33153"
       id="path35789-8-4" />
    <path
       style="fill:#663236;fill-opacity:1;stroke-width:0.258634"
       d="m 105.68813,177.62711 c -10.380661,-1.04675 -18.129881,-3.52644 -24.770501,-7.92637 -4.06636,-2.69429 -8.89098,-8.19182 -11.17595,-12.73472 -5.51664,-10.96793 -6.02758,-26.72472 -1.44507,-44.56221 1.05537,-4.10796 3.00503,-10.25482 3.37264,-10.63319 0.11652,-0.11993 0.48617,-0.0442 0.82143,0.16826 3.52313,2.23275 16.18863,0.48498 33.373321,-4.605345 l 3.79677,-1.124648 5.69211,1.643322 c 16.25026,4.691461 28.20554,6.242091 31.55035,4.092171 0.33525,-0.2155 0.7017,-0.29369 0.81431,-0.17376 0.3711,0.39525 2.34735,6.61225 3.38005,10.63319 4.07776,15.8774 4.12993,30.55072 0.14531,40.86825 -2.01623,5.22065 -4.16616,8.53409 -8.01645,12.3548 -4.20892,4.17655 -8.68098,6.89506 -14.80876,9.00206 -6.74492,2.31919 -16.5876,3.61752 -22.72956,2.99819 z"
       id="path36055-3" />
    <rect
       style="fill:#93843e;fill-opacity:1;stroke-width:0.312829"
       id="rect36293"
       width="0.90581304"
       height="75.410889"
       x="108.75496"
       y="99.829758" />
    <rect
       style="fill:#93843e;fill-opacity:1;stroke-width:0.329665"
       id="rect36293-0"
       width="0.90581304"
       height="83.746162"
       x="137.91621"
       y="-151.30473"
       transform="rotate(90)" />
    <rect
       style="fill:#93843e;fill-opacity:1;stroke-width:0.283327"
       id="rect36459"
       width="29.543947"
       height="9.3174753"
       x="74.108528"
       y="125.04284" />
    <ellipse
       style="fill:#93843e;fill-opacity:1;stroke-width:0.291624"
       id="path36483"
       cx="88.970055"
       cy="127.76016"
       rx="16.293934"
       ry="6.4411359" />
    <path
       style="fill:none;stroke:#000000;stroke-width:0.358226px;stroke-linecap:butt;stroke-linejoin:miter;stroke-opacity:1"
       d="m 88.985783,105.41742 c 3.545086,3.20777 1.772543,7.38467 1.772543,7.38467 0,0 -3.450143,4.91186 -1.772543,6.53725"
       id="path39533"
       sodipodi:nodetypes="ccc" />
    <path
       style="fill:none;stroke:#000000;stroke-width:0.278519px;stroke-linecap:butt;stroke-linejoin:miter;stroke-opacity:1"
       d="m 82.003029,109.76018 c 3.016939,4.67979 1.486094,5.32449 1.486094,5.32449 0,0 -2.007914,1.73364 -1.486094,4.71348"
       id="path39533-1"
       sodipodi:nodetypes="ccc" />
    <path
       style="fill:none;stroke:#000000;stroke-width:0.278519px;stroke-linecap:butt;stroke-linejoin:miter;stroke-opacity:1"
       d="m 82.003029,109.76018 c 1.486094,5.32449 0.277145,5.48669 0.277145,5.48669 0,0 -2.001752,1.43087 -0.277145,4.55128"
       id="path39533-1-8"
       sodipodi:nodetypes="ccc" />
    <path
       style="fill:none;stroke:#000000;stroke-width:0.22746px;stroke-linecap:butt;stroke-linejoin:miter;stroke-opacity:1"
       d="m 96.242137,110.64132 c -2.41902,2.69768 -1.058331,4.98663 -1.058331,4.98663 0,0 2.872625,2.86119 1.058331,4.4144"
       id="path39533-0" />
    <path
       style="fill:none;stroke:#000000;stroke-width:0.22746px;stroke-linecap:butt;stroke-linejoin:miter;stroke-opacity:1"
       d="m 96.242137,110.64132 c -2.41902,2.69768 0.397689,5.23969 0.397689,5.23969 0,0 1.416605,2.60813 -0.397689,4.16134"
       id="path39533-0-1"
       sodipodi:nodetypes="ccc" />
    <path
       style="fill:none;stroke:#000000;stroke-width:0.358226px;stroke-linecap:butt;stroke-linejoin:miter;stroke-opacity:1"
       d="m 88.985783,105.41742 c 4.051523,3.99498 -0.670777,7.50602 -0.670777,7.50602 0,0 -2.367886,4.11575 0.670777,6.4159"
       id="path39533-15"
       sodipodi:nodetypes="ccc" />
    <path
       style="fill:#237770;fill-opacity:1;stroke-width:0.0596625"
       d="m 74.109045,132.36804 v -1.98452 l -0.321044,-0.33494 c -0.672231,-0.70133 -1.004763,-1.36705 -1.055389,-2.11285 -0.04017,-0.59176 0.04226,-0.93917 0.365292,-1.53962 1.391155,-2.58585 6.751705,-4.56146 13.513923,-4.98052 1.357009,-0.0841 4.647475,-0.0365 5.950693,0.086 5.679809,0.53404 10.16506,2.17066 11.91617,4.34808 1.13197,1.40755 0.96466,2.94063 -0.47367,4.34043 l -0.39574,0.38512 v 1.88868 1.88866 H 88.859163 74.109045 Z"
       id="path41163" />
    <path
       style="fill:#237770;fill-opacity:1;stroke-width:0.0596625"
       d="m 81.656882,119.35339 c -0.302983,-0.68307 -0.399108,-1.06281 -0.437692,-1.72905 -0.05721,-0.98792 0.232197,-1.74867 0.900146,-2.36614 0.427584,-0.39526 0.484434,-0.56711 0.480836,-1.45345 -0.0037,-0.91671 -0.319318,-2.76144 -0.640333,-3.74288 -0.08496,-0.25974 -0.08413,-0.26378 0.06114,-0.29752 0.108609,-0.0252 0.209913,0.12249 0.756995,1.10396 0.864321,1.55061 1.206683,2.4798 1.206683,3.27498 0,0.46353 -0.113733,0.7323 -0.447239,1.05688 -0.628101,0.61129 -1.077487,1.39147 -1.337809,2.32256 -0.112749,0.40327 -0.138562,0.65964 -0.139039,1.38083 -3.67e-4,0.78684 -0.01232,0.88561 -0.105494,0.88561 -0.07203,0 -0.1655,-0.13661 -0.298201,-0.43578 z m 0.163889,-0.74899 c 0.02994,-1.24643 0.609537,-2.60958 1.461687,-3.43775 0.397991,-0.3868 0.448984,-0.50652 0.448984,-1.05414 0,-0.75669 -0.379598,-1.82422 -1.072969,-3.0175 -0.177551,-0.30556 -0.308808,-0.50495 -0.291686,-0.4431 0.09417,0.34021 0.352968,1.71075 0.41814,2.21438 0.09709,0.7503 0.05332,1.75914 -0.08913,2.05444 -0.05846,0.12114 -0.244074,0.33765 -0.412486,0.48108 -0.849059,0.72309 -1.069999,1.97841 -0.601465,3.4174 0.05286,0.16237 0.103002,0.29521 0.111407,0.29521 0.0084,0 0.02077,-0.22952 0.02751,-0.51002 z"
       id="path41239" />
    <path
       style="fill:#237770;fill-opacity:1;stroke-width:0.172802"
       d=""
       id="path41278"
       transform="scale(0.26458333)" />
    <path
       style="fill:#237770;fill-opacity:1;stroke-width:0.0596625"
       d="m 81.617653,118.38343 c -0.313061,-1.1481 -0.02791,-2.2706 0.753007,-2.96443 0.453821,-0.40319 0.508162,-0.59501 0.49829,-1.75882 -0.0061,-0.72711 -0.0438,-1.10923 -0.173985,-1.76663 -0.09137,-0.46137 -0.15586,-0.84796 -0.143326,-0.85909 0.04356,-0.0387 0.659368,1.2515 0.864108,1.81039 0.16199,0.44219 0.212268,0.6884 0.235396,1.1527 0.03294,0.66145 0.06613,0.58754 -0.572409,1.27478 -0.394743,0.42485 -0.950628,1.43576 -1.123276,2.04275 -0.07477,0.26287 -0.155492,0.70568 -0.179378,0.98401 l -0.04344,0.50607 z"
       id="path41317" />
    <path
       style="fill:#237770;fill-opacity:1;stroke-width:0.0596625"
       d="m 88.08792,117.9595 c -0.514445,-1.02968 -0.560206,-2.12265 -0.147796,-3.53007 0.269098,-0.91835 0.469478,-1.27536 1.001079,-1.78362 1.042705,-0.99691 1.703849,-2.16597 1.85903,-3.28718 l 0.04669,-0.33737 0.04789,0.22491 c 0.08683,0.40777 0.06185,1.82974 -0.04145,2.36164 -0.152595,0.78558 -0.249684,1.02506 -0.708019,1.74652 -1.032097,1.62457 -1.647353,3.10568 -1.814187,4.36729 l -0.07578,0.57305 z"
       id="path41356" />
    <path
       style="fill:#237770;fill-opacity:1;stroke-width:0.0596625"
       d="m 88.018589,117.72155 c -0.259743,-0.62242 -0.318831,-1.00437 -0.282538,-1.82634 0.02562,-0.58042 0.07585,-0.89237 0.227374,-1.41232 0.253906,-0.8713 0.476444,-1.28061 0.971026,-1.78597 1.009943,-1.03195 1.489838,-1.79405 1.788543,-2.84033 0.05425,-0.19003 0.102932,-0.41776 0.10818,-0.50607 0.0053,-0.0883 0.02993,0.0418 0.0548,0.28927 0.05764,0.57299 -0.03136,1.91425 -0.158547,2.38973 -0.135955,0.50818 -0.178971,0.59687 -0.736455,1.5182 -0.910246,1.50432 -1.47595,2.86992 -1.64707,3.97601 -0.04205,0.27182 -0.09605,0.51475 -0.120005,0.53984 -0.02395,0.0251 -0.116349,-0.12881 -0.205319,-0.34202 z"
       id="path41395" />
    <path
       style="fill:#237770;fill-opacity:1;stroke-width:0.0596625"
       d="m 88.522649,119.11968 c -1.227807,-1.16591 -1.542634,-2.79787 -0.93389,-4.84098 0.254999,-0.85584 0.520592,-1.34985 0.920639,-1.71239 0.884858,-0.80188 1.564107,-1.83662 1.810383,-2.75784 0.200209,-0.7489 0.155756,-1.66553 -0.114037,-2.35149 -0.218848,-0.55645 -0.665156,-1.24818 -1.071584,-1.66085 -0.270327,-0.27448 -0.270624,-0.27528 -0.142019,-0.37866 0.12654,-0.10171 0.132771,-0.0995 0.343744,0.11942 1.351237,1.40265 1.992951,2.91811 1.9996,4.7222 0.0047,1.28615 -0.212153,2.24831 -0.663944,2.94532 -0.776151,1.19743 -1.492453,2.65617 -1.78379,3.63268 -0.124643,0.41782 -0.170208,0.714 -0.177304,1.1527 -0.0087,0.53671 0.0064,0.62052 0.165039,0.92149 0.133546,0.25324 0.157767,0.34909 0.103029,0.40767 -0.107224,0.11475 -0.140412,0.10023 -0.455873,-0.19931 z m -0.132106,-1.11592 c 0.01315,-1.16286 0.716433,-2.90571 1.957862,-4.85156 0.467437,-0.73267 0.662519,-1.56788 0.662791,-2.83767 1.47e-4,-0.69219 -0.122483,-1.67414 -0.219888,-1.76066 -0.01814,-0.0161 -0.03348,0.15837 -0.0341,0.38773 -0.0029,1.17398 -0.682415,2.51612 -1.818946,3.59369 -0.458547,0.43475 -0.548683,0.55591 -0.738546,0.99278 -0.788747,1.81491 -0.798514,3.52562 -0.027,4.72885 0.10411,0.16236 0.194317,0.29515 0.200465,0.29509 0.0061,-7e-5 0.01396,-0.24679 0.01736,-0.54825 z"
       id="path41434" />
    <path
       style="fill:#237770;fill-opacity:1;stroke-width:0.172802"
       d=""
       id="path41473"
       transform="scale(0.26458333)" />
    <path
       style="fill:#237770;fill-opacity:1;stroke-width:0.172802"
       d=""
       id="path41512"
       transform="scale(0.26458333)" />
    <path
       style="fill:#237770;fill-opacity:1;stroke-width:0.0596625"
       d="m 96.910319,118.10229 c -0.23881,-0.74342 -0.624536,-1.40618 -1.264781,-2.17316 -0.426679,-0.51114 -0.554307,-0.80119 -0.652846,-1.48367 -0.05287,-0.36612 -0.0518,-0.61308 0.0043,-0.98737 0.0865,-0.57733 0.129406,-0.66557 0.129406,-0.26611 0,0.67951 0.4664,1.71976 1.104897,2.46433 0.245319,0.28608 0.381102,0.51686 0.497029,0.84477 0.188266,0.53253 0.315314,1.24644 0.284951,1.60121 l -0.02166,0.25303 z"
       id="path41551" />
    <path
       style="fill:#237770;fill-opacity:1;stroke-width:0.0596625"
       d="m 96.233422,120.01293 c -0.02195,-0.0316 0.03765,-0.13909 0.132466,-0.23897 0.750641,-0.79071 0.360349,-2.26922 -1.012052,-3.83393 -0.418013,-0.47658 -0.554699,-0.89329 -0.591059,-1.80191 -0.02447,-0.6119 -0.0073,-0.81341 0.105313,-1.23704 0.218526,-0.82185 1.166504,-2.39275 1.347125,-2.23231 0.04391,0.039 0.0043,0.13548 -0.123771,0.3014 -0.286582,0.37129 -0.501961,0.77791 -0.612212,1.15583 -0.126014,0.43195 -0.126526,1.22855 -0.0011,1.70287 0.128644,0.48648 0.52389,1.2006 0.924552,1.67044 0.477326,0.55975 0.681012,1.05985 0.814057,1.99873 0.123978,0.87487 -0.116031,1.73005 -0.664966,2.36929 -0.181144,0.21094 -0.25073,0.24277 -0.318344,0.1456 z m 0.825774,-1.76975 c 0.08953,-0.84865 -0.250654,-2.02941 -0.748083,-2.59657 -0.684998,-0.78102 -1.04449,-1.59551 -1.112516,-2.52062 l -0.04549,-0.61851 -0.121251,0.44983 c -0.254845,0.94549 -0.107778,2.18641 0.321447,2.71222 0.450602,0.55198 0.903286,1.17843 1.087513,1.50498 0.237111,0.42025 0.458102,1.047 0.458102,1.29919 0,0.35833 0.115698,0.19191 0.160266,-0.23052 z"
       id="path41590" />
    <rect
       style="fill:#237770;fill-opacity:1;stroke-width:0.214241"
       id="rect41897"
       width="34.213379"
       height="5.2173815"
       x="112.43205"
       y="124.55064" />
    <rect
       style="fill:#237770;fill-opacity:1;stroke-width:0.389189"
       id="rect41899"
       width="2.5891182"
       height="15.652154"
       x="112.43205"
       y="118.85896" />
    <rect
       style="fill:#237770;fill-opacity:1;stroke-width:0.439805"
       id="rect41899-8"
       width="2.5891182"
       height="19.988272"
       x="144.0563"
       y="114.75998" />
    <ellipse
       style="fill:#237770;fill-opacity:1;stroke-width:0.214241"
       id="path42030"
       cx="128.33662"
       cy="123.24628"
       rx="16.089535"
       ry="3.6758823" />
    <ellipse
       style="fill:#237770;fill-opacity:1;stroke-width:0.214241"
       id="path42238"
       cx="139.98767"
       cy="120.04473"
       rx="4.8083668"
       ry="3.082998" />
    <path
       style="fill:none;stroke:#000000;stroke-width:0.190012px;stroke-linecap:butt;stroke-linejoin:miter;stroke-opacity:1"
       d="m 73.332619,159.86237 c 4.455331,1.668 0.968039,-7.93936 14.31309,-13.49769"
       id="path43281"
       sodipodi:nodetypes="cc" />
    <path
       style="fill:none;stroke:#000000;stroke-width:0.113357px;stroke-linecap:butt;stroke-linejoin:miter;stroke-opacity:1"
       d="m 107.67012,142.94718 c 1.66222,3.48064 -11.7986,0.23183 -20.058762,3.42787"
       id="path43281-6"
       sodipodi:nodetypes="cc" />
    <path
       style="fill:none;stroke:#000000;stroke-width:0.184866px;stroke-linecap:butt;stroke-linejoin:miter;stroke-opacity:1"
       d="m 73.332619,159.86237 c 4.222032,2.83177 1.863163,-5.74107 14.775914,-12.37633"
       id="path43281-9"
       sodipodi:nodetypes="cc" />
    <path
       style="fill:none;stroke:#000000;stroke-width:0.128757px;stroke-linecap:butt;stroke-linejoin:miter;stroke-opacity:1"
       d="m 107.65323,142.94718 c 2.34418,4.37246 -11.496225,0.30697 -19.544697,4.53886"
       id="path43281-6-2"
       sodipodi:nodetypes="cc" />
    <path
       style="fill:none;stroke:#000000;stroke-width:0.131337px;stroke-linecap:butt;stroke-linejoin:miter;stroke-opacity:1"
       d="m 107.06697,144.91147 -31.123393,14.7953"
       id="path45812" />
    <path
       style="fill:none;stroke:#000000;stroke-width:0.176142px;stroke-linecap:butt;stroke-linejoin:miter;stroke-opacity:1"
       d="M 94.287561,159.24142 78.811332,141.96325"
       id="path46072-7" />
    <path
       style="fill:none;stroke:#000000;stroke-width:0.176142px;stroke-linecap:butt;stroke-linejoin:miter;stroke-opacity:1"
       d="M 93.893136,159.61797 78.416908,142.3398"
       id="path46072-7-5" />
    <path
       style="fill:none;stroke:#000000;stroke-width:0.131337px;stroke-linecap:butt;stroke-linejoin:miter;stroke-opacity:1"
       d="m 94.287555,159.24142 v 0 l -0.488974,-0.0883 0.09456,0.46488"
       id="path46363" />
    <path
       style="fill:none;stroke:#000000;stroke-width:0.131337px;stroke-linecap:butt;stroke-linejoin:miter;stroke-opacity:1"
       d="m 93.300088,158.9578 -0.09231,0.823 -1.421634,-1.60415 0.03695,-0.83695 z"
       id="path46365" />
    <path
       style="fill:none;stroke:#000000;stroke-width:0.131337px;stroke-linecap:butt;stroke-linejoin:miter;stroke-opacity:1"
       d="m 93.890903,158.72066 0.923129,0.15345 -1.366245,-1.52046 -0.941592,-0.18134 z"
       id="path46367" />
    <path
       style="fill:none;stroke:#000000;stroke-width:0.131337px;stroke-linecap:butt;stroke-linejoin:miter;stroke-opacity:1"
       d="m 78.416908,142.3398 -0.477798,-0.16282 -0.184625,-1.04618 1.366239,0.61376 -0.112458,0.41498 -0.591358,0.18026"
       id="path46369" />
    <path
       style="fill:#237770;fill-opacity:1;stroke-width:0.0320959"
       d="m 81.19802,145.28066 -2.606958,-2.90839 0.135592,-0.0481 c 0.07458,-0.0265 0.15382,-0.0484 0.1761,-0.0489 0.02228,-4.4e-4 1.199708,1.29343 2.616511,2.87519 l 2.576004,2.87592 -0.124045,0.0801 c -0.06823,0.0441 -0.13354,0.0807 -0.145144,0.0814 -0.0116,4.3e-4 -1.194232,-1.30764 -2.62806,-2.90726 z"
       id="path46408" />
    <path
       style="fill:#237770;fill-opacity:1;stroke-width:0.00802401"
       d="m 85.105669,148.84637 c -0.08506,-0.0949 -0.275556,-0.30743 -0.423332,-0.47226 l -0.268684,-0.29967 0.08371,-0.0494 c 0.920917,-0.54298 1.895698,-1.02694 3.130057,-1.55404 0.04062,-0.0173 0.07312,-0.0341 0.07223,-0.0372 -9.14e-4,-0.003 -0.0042,-0.0107 -0.0073,-0.0167 -0.0044,-0.009 0.04176,-0.0284 0.213946,-0.0919 1.224665,-0.45214 2.698502,-0.80577 4.350587,-1.04385 0.210083,-0.0303 0.831168,-0.11211 0.8516,-0.11222 0.0038,-1e-5 0.0068,0.14356 0.0068,0.31906 v 0.31909 l -0.214465,0.04 c -1.812248,0.33827 -3.46339,0.87424 -4.735076,1.53701 -0.08241,0.043 -0.100134,0.0497 -0.106884,0.0406 -0.0067,-0.009 -0.0428,0.007 -0.205843,0.0919 -0.839001,0.43645 -1.743724,0.958 -2.475219,1.42693 l -0.11733,0.0753 z"
       id="path47927" />
    <path
       style="fill:#237770;fill-opacity:1;stroke-width:0.00802401"
       d="m 85.146279,148.88527 c -0.06326,-0.0703 -0.25258,-0.28122 -0.420697,-0.46877 l -0.305667,-0.341 0.07596,-0.0451 c 0.818595,-0.48592 1.825953,-0.9907 2.933069,-1.46974 0.139625,-0.0604 0.258933,-0.11294 0.265133,-0.11672 0.0062,-0.004 0.01035,-0.0136 0.0092,-0.0219 -0.0017,-0.0129 0.02367,-0.0247 0.187204,-0.0861 1.115223,-0.41925 2.547489,-0.77227 4.107956,-1.01254 0.353186,-0.0544 1.094047,-0.15305 1.102319,-0.1468 0.0021,0.002 0.007,0.14318 0.01072,0.31454 l 0.0066,0.31154 -0.03599,0.008 c -0.01979,0.004 -0.121144,0.0232 -0.225227,0.0429 -1.764747,0.33259 -3.383665,0.8567 -4.645802,1.50403 -0.08572,0.0439 -0.135483,0.0652 -0.152972,0.0652 -0.0322,0 -0.225688,0.0979 -0.68927,0.34876 -0.679613,0.36776 -1.559509,0.88606 -2.092343,1.23249 -0.01381,0.009 -0.02639,-0.003 -0.130319,-0.11784 z"
       id="path48303" />
    <path
       style="fill:#237770;fill-opacity:1;stroke-width:0.0226953"
       d="m 78.214453,142.1974 -0.196539,-0.069 -0.07167,-0.41843 c -0.03943,-0.23015 -0.07141,-0.42447 -0.07109,-0.43186 4.53e-4,-0.0115 1.078292,0.46088 1.12824,0.4945 0.0099,0.007 0.0058,0.0548 -0.009,0.10702 -0.02367,0.0834 -0.03099,0.0908 -0.06,0.0608 -0.03099,-0.032 -0.03894,-0.0313 -0.128091,0.0102 -0.05228,0.0244 -0.09463,0.0503 -0.09411,0.0575 4.53e-4,0.008 0.02938,0.0394 0.06415,0.0716 l 0.06321,0.0585 -0.212795,0.0649 c -0.117037,0.0357 -0.213464,0.0645 -0.214281,0.064 -7.42e-4,-4.4e-4 -0.08993,-0.0319 -0.198028,-0.0698 z"
       id="path48529" />
    <path
       style="fill:#237770;fill-opacity:1;stroke-width:0.0226953"
       d="m 93.124104,145.48633 v -0.31361 l 0.194314,-0.0218 c 0.828221,-0.0931 1.970593,-0.18002 3.004188,-0.22866 1.133215,-0.0533 1.954923,-0.0703 4.347354,-0.0897 3.50231,-0.0285 4.34713,-0.0615 5.36253,-0.2097 0.88255,-0.12876 1.47648,-0.36909 1.70757,-0.69093 l 0.0827,-0.11521 v 0.0698 c 0.002,0.20329 -0.14982,0.45357 -0.37776,0.62258 -0.40109,0.29741 -1.22978,0.49484 -2.46755,0.5879 -0.80348,0.0604 -1.02575,0.0668 -4.54317,0.13045 -2.034225,0.0368 -3.177805,0.0896 -4.517074,0.20865 -0.865242,0.0769 -1.97224,0.21511 -2.506588,0.31301 -0.07898,0.0145 -0.17591,0.0318 -0.215407,0.0386 l -0.0718,0.0123 z"
       id="path48568" />
    <path
       style="fill:#237770;fill-opacity:1;stroke-width:0.0453906"
       d="m 74.272523,160.23122 -0.182771,-0.0643 0.287213,-0.0267 c 0.490334,-0.0454 0.78283,-0.20851 1.156191,-0.64446 0.269667,-0.31486 0.530905,-0.8342 1.229303,-2.4438 1.149398,-2.64902 2.020406,-4.05743 3.504499,-5.66673 0.806279,-0.87429 2.302598,-2.13166 3.233548,-2.71718 l 0.268712,-0.16901 0.417477,0.4576 0.417477,0.45758 -0.811419,0.59913 c -2.327643,1.71869 -4.001888,3.45634 -5.557152,5.76763 -0.335841,0.49909 -0.78046,1.20039 -0.98804,1.55844 -1.129903,1.94892 -1.40037,2.35236 -1.792461,2.67374 -0.116095,0.0952 -0.275755,0.19828 -0.354803,0.22916 -0.190294,0.0743 -0.600255,0.0688 -0.827774,-0.0112 z"
       id="path48607" />
    <path
       style="fill:#237770;fill-opacity:1;stroke-width:0.0226953"
       d="m 88.534711,153.47918 c -0.05643,-0.0631 -0.877578,-0.98019 -1.82477,-2.03806 -0.947191,-1.05785 -1.732202,-1.93595 -1.744469,-1.95131 -0.01612,-0.0202 0.0164,-0.0535 0.117386,-0.12049 l 0.139683,-0.0926 1.861964,2.07868 c 1.02408,1.14327 1.861963,2.08211 1.861963,2.08632 0,0.005 -0.0392,0.0251 -0.08711,0.0465 -0.04791,0.0213 -0.117472,0.0538 -0.154578,0.0722 l -0.06746,0.0333 z"
       id="path48646" />
    <path
       style="fill:#237770;fill-opacity:1;stroke-width:0.0226953"
       d="m 74.49446,160.46779 c -0.302717,-0.052 -0.646375,-0.1961 -1.02454,-0.42953 l -0.189013,-0.11667 0.05737,-0.0587 c 0.03155,-0.0322 0.06961,-0.0545 0.08458,-0.0493 0.719372,0.2455 1.182651,0.21879 1.590388,-0.0917 0.430891,-0.32812 0.691957,-0.77605 1.348275,-2.31334 0.608436,-1.42514 0.871585,-1.99271 1.236854,-2.66772 1.344518,-2.48463 3.170133,-4.46947 5.632022,-6.12322 l 0.442027,-0.29693 -0.04872,-0.0525 c -0.289865,-0.31224 -5.251871,-5.86658 -5.251871,-5.87881 0,-0.01 -0.102808,-0.0505 -0.228464,-0.092 -0.125655,-0.0415 -0.236582,-0.0807 -0.246503,-0.087 -0.02589,-0.0164 -0.217058,-1.12268 -0.196667,-1.13808 0.01457,-0.011 1.402453,0.59851 1.463827,0.64285 0.01207,0.009 -0.0027,0.10739 -0.03297,0.21927 l -0.05491,0.20341 0.11384,0.12918 c 0.278933,0.31652 5.06263,5.65425 5.078682,5.66688 0.0099,0.008 0.129386,-0.0501 0.265588,-0.12855 0.54281,-0.31272 1.254275,-0.68266 1.895853,-0.98577 0.485497,-0.22937 1.136639,-0.50796 1.160843,-0.49666 0.01192,0.006 0.113232,-0.0246 0.225139,-0.067 1.643586,-0.62282 3.946997,-1.08319 6.522147,-1.30359 1.708404,-0.14622 3.031264,-0.19178 6.344783,-0.21853 2.30795,-0.0187 3.36124,-0.0394 4.03401,-0.0799 1.71572,-0.10305 2.63837,-0.35601 2.92979,-0.80324 0.0758,-0.11638 0.0861,-0.15246 0.095,-0.33407 0.009,-0.17837 0.002,-0.22458 -0.0599,-0.37304 -0.0384,-0.0932 -0.0662,-0.17213 -0.0618,-0.17542 0.005,-0.004 0.031,-0.009 0.0589,-0.0128 0.0433,-0.006 0.0633,0.0231 0.13787,0.20033 0.15946,0.37896 0.1962,0.64123 0.12522,0.89432 -0.19495,0.69519 -1.12243,1.03754 -3.18591,1.17601 -0.65198,0.0437 -1.59086,0.0698 -3.6032,0.10009 -2.949231,0.0444 -4.541093,0.12768 -6.253396,0.32725 -2.577939,0.30046 -4.794991,0.89056 -6.454623,1.71798 -0.147817,0.0737 -0.274725,0.13626 -0.282018,0.13905 -0.0073,0.003 -0.02717,-0.0117 -0.04415,-0.0323 -0.02766,-0.0334 -0.01116,-0.0473 0.156865,-0.13176 1.969595,-0.98995 4.443628,-1.60212 7.642237,-1.89097 1.448726,-0.13084 2.847256,-0.18815 5.574515,-0.22845 2.46019,-0.0363 3.42771,-0.0791 4.28208,-0.18901 1.41727,-0.1824 2.08326,-0.57652 2.07386,-1.22727 l -0.002,-0.13218 -0.0472,0.10029 c -0.27749,0.589 -1.29619,0.87388 -3.48687,0.97511 -0.61558,0.0284 -2.43949,0.0579 -3.64238,0.0588 -5.163314,0.004 -8.426293,0.29405 -11.111521,0.988 -0.772558,0.19965 -1.890916,0.56497 -1.891674,0.61792 -1.5e-4,0.0119 -0.07361,0.0518 -0.163188,0.0887 -0.381896,0.15713 -1.245027,0.55895 -1.725099,0.80311 -0.556499,0.28303 -1.374865,0.73738 -1.37506,0.76341 -1.05e-4,0.0141 0.786125,0.90426 0.837555,0.94832 0.01112,0.01 0.123879,-0.0487 0.25056,-0.12933 0.602061,-0.38337 1.507082,-0.90611 2.226785,-1.28618 l 0.3254,-0.17185 0.0461,0.0452 c 0.02535,0.0249 0.04635,0.0517 0.04667,0.0596 3.02e-4,0.008 -0.130294,0.0833 -0.290249,0.16768 -0.159956,0.0843 -0.527131,0.28563 -0.815943,0.44738 -0.449851,0.25192 -0.706486,0.40448 -1.535636,0.91289 -0.06753,0.0414 -0.123335,0.0808 -0.124024,0.0875 -0.0012,0.0114 3.715408,4.17098 3.757435,4.20533 0.01055,0.009 4.035576,-1.89366 8.944493,-4.2273 4.908926,-2.33364 8.940876,-4.23847 8.959886,-4.23295 0.019,0.006 0.0346,0.0226 0.0346,0.038 0,0.0158 -3.86974,1.86749 -8.886103,4.25209 -4.887338,2.32331 -8.904382,4.23514 -8.926751,4.24853 -0.03527,0.0212 0.175424,0.26536 1.58662,1.83924 0.895009,0.9982 1.648598,1.8249 1.674641,1.83713 0.02604,0.0122 0.250841,0.06 0.499546,0.10624 l 0.452188,0.084 0.09748,0.1009 c 0.228039,0.23603 1.364925,1.51508 1.354016,1.52333 -0.01013,0.008 -0.189916,-0.0202 -0.834748,-0.12925 -0.113778,-0.0192 -0.121726,-0.0354 0.102007,0.2087 0.142185,0.15519 0.159652,0.18357 0.126077,0.20462 -0.02144,0.0134 -0.03898,0.0357 -0.03898,0.0496 0,0.0194 -0.04333,0.0168 -0.188315,-0.0114 -0.103564,-0.0201 -0.192728,-0.0333 -0.198152,-0.0291 -0.0097,0.008 0.03717,0.25952 0.06256,0.33624 0.01,0.0303 -0.0053,0.045 -0.06443,0.0618 l -0.07756,0.0221 -0.229882,-0.2591 -0.229868,-0.25908 -0.0434,0.36816 c -0.02387,0.20249 -0.04766,0.37684 -0.05285,0.38744 -0.0051,0.0106 -0.352106,-0.36814 -0.770901,-0.84162 l -0.761443,-0.86088 0.0208,-0.40441 c 0.01294,-0.25176 0.01136,-0.41797 -0.0043,-0.44035 -0.01375,-0.0197 -0.735992,-0.82983 -1.60497,-1.80014 -1.110672,-1.24018 -1.589814,-1.75977 -1.613133,-1.74935 -0.01825,0.009 -2.832337,1.34578 -6.25354,2.9725 l -6.220369,2.95767 -0.125118,0.14009 c -0.450222,0.50409 -0.909683,0.70219 -1.423714,0.61385 z m 0.61488,-0.19253 c 0.45244,-0.17082 0.841204,-0.63367 1.546228,-1.84089 0.164745,-0.28209 0.429237,-0.73483 0.587757,-1.00608 0.95693,-1.63741 1.785006,-2.80403 2.828482,-3.98487 0.854799,-0.96731 1.74896,-1.82423 2.758315,-2.64342 0.357532,-0.29017 1.321751,-1.01508 1.646168,-1.23759 l 0.190495,-0.13067 -0.4354,-0.4847 c -0.239469,-0.26659 -0.446974,-0.4847 -0.461119,-0.4847 -0.04412,0 -0.61098,0.3875 -1.139659,0.77904 -2.160869,1.60035 -3.718375,3.40128 -4.937342,5.70901 -0.295294,0.55904 -0.498577,0.99349 -0.887144,1.89596 -0.737558,1.713 -0.852544,1.95704 -1.110795,2.35738 -0.321226,0.49797 -0.655283,0.76849 -1.084778,0.87848 -0.142499,0.0365 -0.209347,0.0417 -0.435939,0.0343 -0.147196,-0.005 -0.267628,-0.007 -0.267628,-0.004 0,0.0151 0.321484,0.14093 0.456927,0.17899 0.112489,0.0316 0.216225,0.0443 0.367901,0.0451 0.186671,8.6e-4 0.230579,-0.007 0.377531,-0.0617 z m 18.09181,-0.97724 0.03155,-0.30026 -0.66136,-0.73954 c -0.363748,-0.40675 -0.668359,-0.7399 -0.676913,-0.74035 -0.0085,-4.3e-4 -0.02285,0.14345 -0.03177,0.31976 l -0.01622,0.32057 0.645362,0.73338 c 0.354948,0.40337 0.652659,0.72738 0.661589,0.72004 0.0089,-0.008 0.03041,-0.14846 0.04777,-0.3136 z m -10.867671,-2.68175 c 3.371473,-1.60214 6.134099,-2.91539 6.139166,-2.91835 0.01818,-0.0106 -3.687062,-4.13087 -3.714793,-4.13087 -0.03822,0 -1.068995,0.75005 -1.510659,1.09924 -1.978687,1.56439 -3.540475,3.25658 -4.898181,5.30717 -0.432293,0.65292 -0.618748,0.9608 -1.484333,2.45105 -0.12289,0.21157 -0.32667,0.54668 -0.452848,0.7447 -0.126177,0.19801 -0.224662,0.36002 -0.218857,0.36002 0.0058,0 2.769032,-1.31084 6.140505,-2.91296 z m 11.415406,2.60859 c -0.0153,-0.0626 -0.02245,-0.11784 -0.01588,-0.1228 0.0066,-0.005 0.08506,0.006 0.174414,0.0228 0.08933,0.0174 0.167509,0.0279 0.173719,0.0232 0.0098,-0.008 -4.947776,-5.55813 -5.005359,-5.60406 -0.02863,-0.0229 -0.370877,0.14429 -0.355497,0.1736 0.02059,0.0392 5.039241,5.63399 5.047944,5.62742 0.0047,-0.004 -0.0041,-0.0576 -0.01934,-0.12019 z m 0.899328,-0.45019 c -0.08215,-0.104 -1.216395,-1.35466 -1.242596,-1.37013 -0.0403,-0.0238 -0.70088,-0.1493 -0.717948,-0.1364 -0.0066,0.005 0.268089,0.32381 0.610411,0.70849 l 0.622394,0.69942 0.339429,0.0594 c 0.401456,0.0703 0.413847,0.0715 0.38831,0.0392 z m -5.822012,-5.24554 0.170195,-0.082 -0.268865,-0.29777 c -0.147876,-0.16377 -0.983277,-1.09671 -1.856449,-2.0732 -0.873171,-0.97649 -1.601617,-1.787 -1.618767,-1.80114 -0.02515,-0.0207 -0.06232,-0.006 -0.192034,0.0771 l -0.160848,0.10278 0.04567,0.054 c 0.225823,0.26696 3.677483,4.10225 3.691921,4.10225 0.01044,0 0.09557,-0.0369 0.189178,-0.082 z m -3.86894,-4.29079 c 0.07587,-0.0506 0.141757,-0.0992 0.146409,-0.10794 0.01017,-0.0192 -0.832061,-0.96396 -0.859324,-0.96396 -0.04135,0 -0.31338,0.18295 -0.305929,0.20575 0.01212,0.0371 0.840808,0.95788 0.862182,0.95802 0.01029,5e-5 0.08079,-0.0413 0.156662,-0.0919 z m -0.988414,-1.09531 c 0.0738,-0.0454 0.143653,-0.0886 0.155235,-0.0958 0.01757,-0.0111 -5.071731,-5.72243 -5.161386,-5.7923 -0.02237,-0.0174 -0.07366,-0.01 -0.212269,0.0323 -0.100525,0.0304 -0.182771,0.0662 -0.182771,0.0794 0,0.0318 5.215345,5.85761 5.24453,5.85836 0.01237,3.5e-4 0.08287,-0.0366 0.156661,-0.082 z m -5.343895,-5.91597 c 0.111244,-0.0334 0.211806,-0.0651 0.223469,-0.0706 0.01167,-0.006 -0.0046,-0.0413 -0.03603,-0.0798 l -0.05722,-0.0699 0.06291,-0.0367 c 0.0617,-0.0359 0.06379,-0.0358 0.109251,0.006 0.02549,0.023 0.05014,0.0384 0.05477,0.0342 0.01184,-0.0109 0.07003,-0.24037 0.06207,-0.24475 -0.118813,-0.0652 -1.174352,-0.52457 -1.185732,-0.51597 -0.009,0.007 0.01775,0.21009 0.05947,0.45173 l 0.07584,0.43936 0.19557,0.0726 c 0.107563,0.0399 0.204074,0.0733 0.214471,0.074 0.01039,8.6e-4 0.109921,-0.0259 0.221166,-0.0593 z"
       id="path48907" />
    <path
       style="fill:#237770;fill-opacity:1;stroke-width:0.0226953"
       d="m 91.222282,156.47886 -2.484693,-2.77419 0.137079,-0.066 c 0.07539,-0.0363 0.1498,-0.0662 0.165349,-0.0665 0.01555,-2.2e-4 0.169807,0.15707 0.342795,0.34965 0.172985,0.1926 1.291381,1.44103 2.485323,2.77429 2.068597,2.31002 2.166781,2.42362 2.085459,2.41292 -0.04695,-0.006 -0.12514,-0.0176 -0.173764,-0.0253 l -0.08842,-0.0142 0.01823,0.0918 c 0.01,0.0505 0.01345,0.0917 0.0079,0.0917 -0.0057,0 -1.12855,-1.24839 -2.495129,-2.77419 z"
       id="path48946" />
    <path
       style="fill:none;stroke:#000000;stroke-width:0.0463674px;stroke-linecap:butt;stroke-linejoin:miter;stroke-opacity:1"
       d="m 110.11974,139.38443 2.75799,3.06588 26.56672,16.20539 -2.25142,1.78843 0.61914,0.32849 2.25142,-1.75193 5.17826,2.88339 0.56285,-0.40149 -5.23455,-2.91988 1.91371,-1.35045 -0.394,-0.32849 -1.85742,1.31395 z"
       id="path49295" />
    <path
       style="fill:#237770;fill-opacity:1;stroke-width:0.0453248"
       d="m 142.64814,160.4075 c -1.40533,-0.78297 -2.57359,-1.41942 -2.59615,-1.41433 -0.0226,0.005 -0.52626,0.38703 -1.11933,0.84874 -0.59308,0.46171 -1.10458,0.83947 -1.13668,0.83947 -0.0654,0 -0.48371,-0.20671 -0.48777,-0.24104 -0.002,-0.0121 0.4912,-0.41452 1.09475,-0.89422 0.60355,-0.47969 1.09094,-0.88484 1.0831,-0.90033 -0.008,-0.0155 -5.98767,-3.67186 -13.28847,-8.12526 l -13.27419,-8.09712 -1.20678,-1.34182 c -0.66372,-0.738 -1.19674,-1.34833 -1.18447,-1.35628 0.0122,-0.008 6.69352,4.1578 14.84722,9.25721 8.15372,5.09942 14.83981,9.27168 14.85802,9.27169 0.0182,0 0.43612,-0.28719 0.92871,-0.63821 0.49259,-0.35102 0.90829,-0.63834 0.92376,-0.63848 0.0155,-1.5e-4 0.0881,0.0568 0.16142,0.12665 l 0.13328,0.1269 -0.18572,0.13746 c -0.10214,0.0756 -0.5167,0.37194 -0.92127,0.65852 -0.40456,0.28658 -0.73556,0.5367 -0.73556,0.55584 0,0.0191 1.15245,0.67747 2.56099,1.46297 1.40854,0.7855 2.57015,1.4337 2.58135,1.44046 0.0283,0.017 -0.39034,0.34476 -0.44042,0.34476 -0.0224,0 -1.19046,-0.64061 -2.59579,-1.42358 z"
       id="path49334" />
    <path
       style="fill:none;stroke:#000000;stroke-width:0.0463674px;stroke-linecap:butt;stroke-linejoin:miter;stroke-opacity:1"
       d="m 145.82104,139.38443 -2.75799,3.06588 -26.56671,16.20539 2.25141,1.78843 -0.61914,0.32849 -2.25142,-1.75193 -5.17825,2.88339 -0.56286,-0.40149 5.23455,-2.91988 -1.91371,-1.35045 0.394,-0.32849 1.85742,1.31395 z"
       id="path49295-5" />
    <path
       style="fill:#237770;fill-opacity:1;stroke-width:0.0453248"
       d="m 113.29264,160.4075 c 1.40533,-0.78297 2.5736,-1.41942 2.59616,-1.41433 0.0226,0.005 0.52625,0.38703 1.11933,0.84874 0.59307,0.46171 1.10457,0.83947 1.13667,0.83947 0.0654,0 0.48371,-0.20671 0.48777,-0.24104 0.002,-0.0121 -0.4912,-0.41452 -1.09475,-0.89422 -0.60355,-0.47969 -1.09094,-0.88484 -1.08309,-0.90033 0.008,-0.0155 5.98766,-3.67186 13.28846,-8.12526 l 13.27419,-8.09712 1.20678,-1.34182 c 0.66373,-0.738 1.19674,-1.34833 1.18447,-1.35628 -0.0123,-0.008 -6.69351,4.1578 -14.84722,9.25722 -8.15371,5.09941 -14.83981,9.27167 -14.85801,9.27168 -0.0182,0 -0.43612,-0.28719 -0.92872,-0.63821 -0.49259,-0.35102 -0.90828,-0.63834 -0.92376,-0.63848 -0.0155,-1.4e-4 -0.0881,0.0568 -0.16141,0.12665 l -0.13328,0.1269 0.18571,0.13746 c 0.10214,0.0756 0.51671,0.37194 0.92127,0.65852 0.40456,0.28658 0.73556,0.53671 0.73556,0.55584 0,0.0191 -1.15244,0.67747 -2.56098,1.46297 -1.40855,0.7855 -2.57016,1.4337 -2.58136,1.44046 -0.0283,0.017 0.39035,0.34476 0.44042,0.34476 0.0224,0 1.19046,-0.64061 2.59579,-1.42358 z"
       id="path49334-3" />
  </g>
</svg>
